# xmcd
#
# Track frame offsets:
#	150
#	15663
#	34881
#	46842
#	61093
#	77790
#	95015
#	112765
#	129157
#	146586
#	164578
#	179871
#	199645
#	213111
#	226896
#	243660
#	259811
#	277249
#	291743
#
# Disc length: 4116 seconds
#
# Revision: 1
# Processed by: cddbd v1.5.2PL0 Copyright (c) Steve Scherf et al.
# Submitted via: audiograbber 1.83.01
#
DISCID=1b101213
DTITLE=Various Artist - Hott Country
DYEAR=2012
DGENRE=Country
TTITLE0=Kenny Chesney Feat Tim McGraw - Feel Like  A Rock Star
TTITLE1=Lionel Richie Feat Rascal Flatts - Dancing On The Ceiling
TTITLE2=Scotty McCreery - Water Tower Town
TTITLE3=Blake Shelton - Over
TTITLE4=Keith Urban - For You
TTITLE5=Thompson Square - Glass
TTITLE6=Carolyn Dawn Johnson - Reach You
TTITLE7=Small Town Pistols - Colour Blind
TTITLE8=Hayley - Feelin California
TTITLE9=Lady Antebellum - Wanted You More
TTITLE10=Johnny Reid feat Carolyn Dawn Johnson - Baby I Know It
TTITLE11=George Strait - Drinkin Man
TTITLE12=Dierks Bentley - 5-1-5-0
TTITLE13=Jason Blaine - Cool
TTITLE14=Martina McBride Feat Pat Monahan - Marry Me
TTITLE15=Kelly Clarkson - Mr know It All ( Country Version )
TTITLE16=Charlie Major - My Lover Now
TTITLE17=Jerrod Niemann - Shinin On Me
TTITLE18=Clayton Bellamy - That Ain't Gonna Fly
EXTD=May 2012
EXTT0=
EXTT1=
EXTT2=
EXTT3=
EXTT4=
EXTT5=
EXTT6=
EXTT7=
EXTT8=
EXTT9=
EXTT10=
EXTT11=
EXTT12=
EXTT13=
EXTT14=
EXTT15=
EXTT16=
EXTT17=
EXTT18=May 2012
PLAYORDER=
